<svg id="TryTryAgain" xmlns="http://www.w3.org/2000/svg" viewBox="0 0 1080 1080"><defs><style>.cls-1{opacity:0.2;}.cls-2{fill:#999;}.cls-3{fill:#686868;}.cls-4{fill:#bfbfbf;}.cls-5{fill:#fff;}.cls-6{fill:#757575;}</style></defs><g class="cls-1"><circle class="cls-2" cx="540" cy="540" r="491.89"/></g><path class="cls-3" d="M540,1012.45c227.77,0,417.88-161.18,462.53-375.71A388.71,388.71,0,0,1,955.3,705.6c-15.51,18.08-28.15,32.82-49,47.49C804.45,824.62,668,781,642.79,773c-74.15-23.68-130.67-67.3-168.51-96.51-55.92-43.16-63.76-62.78-111.83-84.26-18.43-8.23-76.24-31.69-150.13-23-30.12,3.55-63.43,7.48-96.51,32.17a182.33,182.33,0,0,0-37.25,40.41C125.13,853.81,314,1012.45,540,1012.45Z"/><path class="cls-4" d="M540,1012.45c227.62,0,417.64-161,462.44-375.3,10-69.81,11.35-109.92-23.4-120.75-79.21-24.67-198.83,84.91-362.3,154-158,66.77-237.08,100.16-312.51,91.92C196.65,750.52,130.71,682.34,79.6,646.47,127.89,856.12,315.69,1012.45,540,1012.45Z"/><path class="cls-5" d="M892.6,277c13.38,32.41,4.76,54.63-7.15,66.71-12.5,12.38-28.3,14.62-42.84,13.9-15.11-1-27.08-8.05-45.12-16.45-17.59-8.36-41.24-18.1-69.48-23.49-27.78-6.38-52.87-8.19-64.93-21.13-12-11.91-10.87-35,16.21-60.27,25.86-24.89,75.66-38.4,119.23-29.12C842.54,215,880.32,245.69,892.6,277Z"/><path class="cls-6" d="M540,49.11A491,491,0,0,1,731.08,992.32,491,491,0,0,1,348.92,87.68,488,488,0,0,1,540,49.11m0-1C268.33,48.11,48.11,268.33,48.11,540S268.33,1031.89,540,1031.89,1031.89,811.67,1031.89,540,811.67,48.11,540,48.11Z"/></svg>