<svg id="TryTryAgain" xmlns="http://www.w3.org/2000/svg" viewBox="0 0 1080 1080"><defs><style>.cls-1{fill:#47d990;}.cls-2{fill:#fff;}</style></defs><path d="M885.8,877.22c-.86.93-1.73,1.86-2.6,2.78C884.07,879.08,884.94,878.15,885.8,877.22Z"/><path d="M882.37,880.87c-.86.9-1.72,1.81-2.59,2.71C880.65,882.68,881.51,881.77,882.37,880.87Z"/><path d="M442.51,1017.69l-2.36-.5Z"/><path d="M861.31,901.67l-2.8,2.59Z"/><path d="M895.74,866.21c-.84.95-1.67,1.91-2.52,2.86C894.07,868.12,894.9,867.16,895.74,866.21Z"/><path d="M417.91,1011.84l-2.27-.62Z"/><path d="M422.78,1013.11l-2.27-.59Z"/><path d="M899,862.46l-2.49,2.9Z"/><path d="M437.55,1016.62l-2.33-.52Z"/><path d="M427.68,1014.33l-2.28-.57Z"/><path d="M892.47,869.9l-2.55,2.85Z"/><path d="M432.6,1015.5l-2.3-.54Z"/><path d="M868.46,894.89c-.9.88-1.81,1.75-2.72,2.62C866.65,896.64,867.56,895.77,868.46,894.89Z"/><path d="M864.88,898.33l-2.74,2.58Z"/><path d="M879,884.41c-.88.91-1.75,1.81-2.64,2.71C877.21,886.22,878.08,885.32,879,884.41Z"/><path d="M875.5,888l-2.67,2.67Z"/><path d="M872,891.42c-.9.89-1.8,1.78-2.71,2.66C870.21,893.2,871.11,892.31,872,891.42Z"/><path d="M413,1010.51l-2.24-.63Z"/><path d="M889.16,873.58l-2.59,2.82Z"/><path d="M923.55,831.22c-.78,1.08-1.55,2.15-2.34,3.22C922,833.37,922.77,832.3,923.55,831.22Z"/><path d="M342.82,984.77l-2-.92Z"/><path d="M338.33,982.68l-2-.94Z"/><path d="M333.86,980.54l-1.93-.95Z"/><path d="M347.34,986.82l-2-.91Z"/><path d="M351.88,988.82l-2-.89Z"/><path d="M926.39,827.23c-.75,1.07-1.51,2.14-2.27,3.2C924.88,829.37,925.64,828.3,926.39,827.23Z"/><path d="M920.61,835.25c-.78,1.06-1.56,2.11-2.35,3.16C919.05,837.36,919.83,836.31,920.61,835.25Z"/><path d="M307.63,966.76l-1.83-1Z"/><path d="M316.26,971.53l-1.86-1Z"/><path d="M311.94,969.17l-1.86-1Z"/><path d="M408.21,1009.14l-2.25-.66Z"/><path d="M356.45,990.78l-2.06-.88Z"/><path d="M929.22,823.17,927,826.38Z"/><path d="M325,976.13l-1.91-1Z"/><path d="M320.63,973.85l-1.89-1Z"/><path d="M329.42,978.35l-1.92-1Z"/><path d="M934.82,814.86c-.74,1.12-1.47,2.23-2.22,3.34C933.35,817.09,934.08,816,934.82,814.86Z"/><path d="M905.39,854.81c-.82,1-1.65,2-2.49,3C903.74,856.83,904.57,855.82,905.39,854.81Z"/><path d="M393.82,1004.71l-2.2-.72Z"/><path d="M389.07,1003.14l-2.17-.74Z"/><path d="M908.5,851l-2.44,3Z"/><path d="M902.25,858.61l-2.53,3Z"/><path d="M398.6,1006.24l-2.21-.7Z"/><path d="M917.62,839.26c-.78,1-1.56,2.07-2.35,3.1C916.06,841.33,916.84,840.3,917.62,839.26Z"/><path d="M403.39,1007.71l-2.23-.68Z"/><path d="M384.34,1001.52l-2.16-.76Z"/><path d="M365.65,994.55l-2.08-.84Z"/><path d="M361,992.69l-2.06-.86Z"/><path d="M914.61,843.22c-.79,1-1.57,2-2.37,3.06C913,845.26,913.82,844.24,914.61,843.22Z"/><path d="M375,998.13l-2.13-.8Z"/><path d="M911.58,847.11c-.8,1-1.6,2-2.41,3C910,849.15,910.78,848.13,911.58,847.11Z"/><path d="M379.63,999.85l-2.14-.78Z"/><path d="M370.29,996.37l-2.11-.83Z"/><path d="M932.07,819c-.75,1.11-1.49,2.21-2.25,3.31C930.58,821.2,931.32,820.1,932.07,819Z"/><path d="M700.15,999.92c-1,.35-1.91.7-2.87,1C698.24,1000.62,699.19,1000.27,700.15,999.92Z"/><path d="M704.94,998.17,702,999.25C703,998.9,704,998.53,704.94,998.17Z"/><path d="M798.71,950.69c-1,.63-1.93,1.27-2.9,1.89C796.78,952,797.74,951.32,798.71,950.69Z"/><path d="M695.36,1001.62c-1,.33-1.9.67-2.86,1C693.46,1002.29,694.41,1002,695.36,1001.62Z"/><path d="M794.5,953.42c-1,.61-1.91,1.23-2.88,1.83C792.59,954.65,793.54,954,794.5,953.42Z"/><path d="M690.67,1003.22l-3,1Z"/><path d="M714.44,994.51l-3,1.19Z"/><path d="M709.74,996.35l-3,1.15Z"/><path d="M666,1010.76l-2.63.73Z"/><path d="M671,1009.37l-2.65.77Z"/><path d="M811.11,942.28c-1,.68-1.94,1.36-2.92,2C809.17,943.64,810.14,943,811.11,942.28Z"/><path d="M790.26,956.1l-2.85,1.78Z"/><path d="M802.9,947.91c-1,.66-1.95,1.31-2.93,2C801,949.22,801.93,948.57,802.9,947.91Z"/><path d="M675.94,1007.91l-2.75.82Z"/><path d="M685.71,1004.86l-2.82.91Z"/><path d="M680.88,1006.4l-2.83.88Z"/><path d="M807,945.13c-1,.66-1.93,1.33-2.91,2C805.07,946.46,806,945.79,807,945.13Z"/><path d="M786,958.75l-2.82,1.72Z"/><path d="M719,992.67c-1,.4-1.91.79-2.87,1.17C717.08,993.46,718,993.07,719,992.67Z"/><path d="M751,978.12l-2.87,1.43Z"/><path d="M773.12,966.33,770.24,968Z"/><path d="M746.54,980.34l-2.88,1.39Z"/><path d="M777.46,963.84l-2.88,1.66Z"/><path d="M764.44,971.14c-1,.54-2,1.07-3,1.59C762.48,972.21,763.46,971.68,764.44,971.14Z"/><path d="M760,973.51l-2.93,1.54Z"/><path d="M768.84,968.74l-3,1.63Z"/><path d="M755.52,975.85c-1,.49-1.92,1-2.89,1.47C753.6,976.84,754.56,976.34,755.52,975.85Z"/><path d="M661.21,1012.07l-2.74.72Z"/><path d="M728.31,988.74l-2.9,1.26Z"/><path d="M723.63,990.74l-2.85,1.2Z"/><path d="M781.79,961.28c-1,.58-1.93,1.16-2.91,1.73C779.86,962.44,780.82,961.86,781.79,961.28Z"/><path d="M737.38,984.68l-2.8,1.28Z"/><path d="M742,982.54l-2.82,1.33Z"/><path d="M733,986.69,730,988Z"/><path d="M853.87,908.43l-2.73,2.42Z"/><path d="M842.65,918.1c-.94.79-1.88,1.58-2.83,2.36C840.77,919.68,841.71,918.89,842.65,918.1Z"/><path d="M846.39,915l-2.76,2.34Z"/><path d="M838.87,921.23,836,923.58Z"/><path d="M857.62,905.06l-2.78,2.51Z"/><path d="M850.13,911.72l-2.73,2.37Z"/><path d="M827.1,930.54c-.94.73-1.89,1.45-2.84,2.17C825.21,932,826.16,931.27,827.1,930.54Z"/><path d="M823.14,933.55l-2.84,2.12Z"/><path d="M641.34,1016.86l-2.79.61Z"/><path d="M646.17,1015.78l-2.61.6Z"/><path d="M636.28,1017.94l-2.76.57Z"/><path d="M656.4,1013.31l-2.88.73Z"/><path d="M819.13,936.52c-1,.69-1.89,1.39-2.84,2.07C817.24,937.91,818.18,937.21,819.13,936.52Z"/><path d="M651.25,1014.59l-2.7.64Z"/><path d="M834.94,924.41l-2.83,2.25Z"/><path d="M815.13,939.42l-2.87,2.06Z"/><path d="M831.05,927.49c-.95.74-1.89,1.48-2.85,2.21C829.16,929,830.1,928.23,831.05,927.49Z"/><path d="M278.27,948.7l-1.66-1.11Z"/><path d="M158.31,833.79l-.79-1.08Z"/><path d="M980.53,726.34c-.48,1.24-1,2.48-1.46,3.72C979.56,728.82,980.05,727.58,980.53,726.34Z"/><path d="M155.43,829.8l-.77-1.08Z"/><path d="M161.25,837.76l-.83-1.11Z"/><path d="M164.22,841.7l-.86-1.14Z"/><path d="M982.33,721.64c-.47,1.25-.94,2.5-1.42,3.74C981.39,724.14,981.86,722.89,982.33,721.64Z"/><path d="M167.22,845.59l-.88-1.14Z"/><path d="M978.69,731c-.5,1.24-1,2.48-1.51,3.71C977.69,733.49,978.19,732.25,978.69,731Z"/><path d="M170.26,849.45l-.9-1.14Z"/><path d="M144.28,813.5l-.65-1Z"/><path d="M985.76,712.19c-.43,1.25-.87,2.5-1.32,3.74C984.89,714.69,985.33,713.44,985.76,712.19Z"/><path d="M152.58,825.77l-.74-1.06Z"/><path d="M141.6,809.35l-.63-1Z"/><path d="M149.78,821.72l-.72-1.05Z"/><path d="M147,817.62l-.69-1Z"/><path d="M984.06,717c-.45,1.23-.9,2.47-1.36,3.71C983.16,719.43,983.61,718.19,984.06,717Z"/><path d="M173.35,853.28l-.94-1.15Z"/><path d="M196,879.14,194.88,878Z"/><path d="M192.65,875.55l-1.09-1.19Z"/><path d="M970.83,749.46c-.55,1.22-1.1,2.44-1.66,3.65C969.73,751.9,970.28,750.68,970.83,749.46Z"/><path d="M968.74,754c-.56,1.21-1.12,2.42-1.7,3.63C967.62,756.44,968.18,755.23,968.74,754Z"/><path d="M189.34,871.93l-1.07-1.19Z"/><path d="M976.81,735.62l-1.56,3.74Z"/><path d="M966.63,758.52c-.58,1.21-1.16,2.42-1.75,3.63C965.47,760.94,966.05,759.73,966.63,758.52Z"/><path d="M202.8,886.23,201.62,885Z"/><path d="M199.38,882.7l-1.15-1.19Z"/><path d="M974.88,740.22c-.53,1.25-1.07,2.5-1.61,3.75C973.81,742.72,974.35,741.47,974.88,740.22Z"/><path d="M176.47,857.07l-1-1.15Z"/><path d="M186.06,868.26l-1-1.17Z"/><path d="M139,805.17l-.6-1Z"/><path d="M179.63,860.84l-1-1.17Z"/><path d="M972.88,744.86c-.55,1.23-1.09,2.47-1.64,3.69C971.79,747.33,972.33,746.09,972.88,744.86Z"/><path d="M182.82,864.56l-1-1.16Z"/><path d="M119.36,770.63l-.37-.73Z"/><path d="M110.63,752.68l-.27-.59Z"/><path d="M104.54,738.88c-.05-.14-.11-.27-.17-.41C104.43,738.61,104.49,738.74,104.54,738.88Z"/><path d="M102.61,734.22c0-.11-.1-.23-.14-.34C102.51,734,102.56,734.11,102.61,734.22Z"/><path d="M998.79,668.49c-.31,1.28-.63,2.55-.95,3.82C998.16,671,998.48,669.77,998.79,668.49Z"/><path d="M108.55,748.09l-.23-.51Z"/><path d="M987.41,707.43c-.42,1.25-.85,2.5-1.28,3.75C986.56,709.93,987,708.68,987.41,707.43Z"/><path d="M106.52,743.49c-.06-.15-.13-.3-.2-.45C106.39,743.19,106.46,743.34,106.52,743.49Z"/><path d="M100.71,729.51l-.1-.24Z"/><path d="M997.54,673.47q-.48,1.89-1,3.78Q997.06,675.36,997.54,673.47Z"/><path d="M520.32,726c-17.56-12.16-32.93-24-46-34.14-55.92-43.16-63.76-62.78-111.83-84.26-18.43-8.23-76.24-31.69-150.13-23-30.12,3.56-63.43,7.49-96.51,32.17a182.79,182.79,0,0,0-37.25,40.42c.34,1.55.69,3.09,1,4.64,51.1,35.86,117,104,224.62,115.8C362.51,784,423,765.48,520.32,726Z"/><path d="M1002.49,652.13c0,.11,0,.22,0,.33l.09-.4Z"/><path d="M1002.21,653.55c-.27,1.28-.55,2.56-.83,3.84C1001.66,656.11,1001.94,654.83,1002.21,653.55Z"/><path d="M98.87,724.81a1.34,1.34,0,0,0-.07-.18Z"/><path d="M1000,663.52c-.3,1.28-.61,2.56-.92,3.84C999.38,666.08,999.69,664.8,1000,663.52Z"/><path d="M97.08,720.08l0-.12S97.07,720,97.08,720.08Z"/><path d="M1001.12,658.55q-.42,1.92-.87,3.84Q1000.7,660.47,1001.12,658.55Z"/><path d="M996.24,678.39c-.33,1.26-.67,2.52-1,3.77C995.57,680.91,995.91,679.65,996.24,678.39Z"/><path d="M128.82,788.14l-.5-.87C128.49,787.56,128.66,787.85,128.82,788.14Z"/><path d="M990.57,697.79c-.4,1.27-.8,2.54-1.21,3.81C989.77,700.33,990.17,699.06,990.57,697.79Z"/><path d="M112.74,757.19l-.29-.6Z"/><path d="M126.39,783.8c-.16-.27-.31-.55-.46-.83C126.08,783.25,126.23,783.53,126.39,783.8Z"/><path d="M131.29,792.44l-.52-.89Z"/><path d="M989,702.6c-.41,1.27-.83,2.54-1.25,3.8C988.19,705.14,988.61,703.87,989,702.6Z"/><path d="M136.36,801c-.19-.31-.38-.63-.58-.94C136,800.33,136.17,800.65,136.36,801Z"/><path d="M133.81,796.72c-.19-.31-.37-.62-.56-.92C133.44,796.1,133.62,796.41,133.81,796.72Z"/><path d="M124,779.45c-.15-.27-.3-.54-.44-.81C123.71,778.91,123.86,779.18,124,779.45Z"/><path d="M114.9,761.7c-.1-.22-.21-.43-.32-.65C114.69,761.27,114.8,761.48,114.9,761.7Z"/><path d="M992.08,692.94c-.39,1.28-.78,2.56-1.18,3.83C991.3,695.5,991.69,694.22,992.08,692.94Z"/><path d="M994.9,683.26c-.35,1.27-.71,2.53-1.07,3.8C994.19,685.79,994.55,684.53,994.9,683.26Z"/><path d="M117.11,766.18c-.11-.23-.23-.46-.35-.69C116.88,765.72,117,766,117.11,766.18Z"/><path d="M993.52,688.09c-.37,1.28-.75,2.56-1.13,3.84C992.77,690.65,993.15,689.37,993.52,688.09Z"/><path d="M121.66,775.05l-.4-.77Z"/><path d="M206.25,889.71l-1.2-1.21Z"/><path d="M216.83,899.94l-1.28-1.2Z"/><path d="M282.38,951.41l-1.68-1.1Z"/><path d="M235.13,916.24l-1.39-1.18Z"/><path d="M238.9,919.39l-1.42-1.17Z"/><path d="M960,771.94l-1.86,3.57Z"/><path d="M955.25,780.81c-.63,1.16-1.26,2.32-1.9,3.47C954,783.13,954.62,782,955.25,780.81Z"/><path d="M274.2,946l-1.64-1.12Z"/><path d="M242.7,922.51l-1.46-1.19Z"/><path d="M940.17,806.55c-.7,1.12-1.41,2.24-2.12,3.35C938.76,808.79,939.47,807.67,940.17,806.55Z"/><path d="M227.71,909.83l-1.35-1.19Z"/><path d="M957.62,776.41c-.62,1.17-1.24,2.33-1.87,3.49C956.38,778.74,957,777.58,957.62,776.41Z"/><path d="M286.52,954.07,284.81,953Z"/><path d="M231.41,913.06,230,911.87Z"/><path d="M942.81,802.31c-.7,1.13-1.39,2.26-2.1,3.39C941.42,804.57,942.11,803.44,942.81,802.31Z"/><path d="M246.52,925.57l-1.47-1.17Z"/><path d="M266.14,940.34l-1.6-1.15Z"/><path d="M950.43,789.45c-.66,1.16-1.33,2.33-2,3.48C949.1,791.78,949.77,790.61,950.43,789.45Z"/><path d="M262.16,937.47l-1.58-1.16Z"/><path d="M947.91,793.8l-2,3.42Z"/><path d="M258.2,934.55l-1.54-1.15Z"/><path d="M952.89,785.09c-.66,1.18-1.31,2.36-2,3.53C951.58,787.45,952.23,786.27,952.89,785.09Z"/><path d="M250.38,928.61l-1.49-1.17Z"/><path d="M270.15,943.16,268.53,942Z"/><path d="M945.38,798.07c-.68,1.14-1.36,2.28-2.06,3.41C944,800.35,944.7,799.21,945.38,798.07Z"/><path d="M254.27,931.6l-1.51-1.16Z"/><path d="M937.54,810.68q-1.08,1.7-2.19,3.39Q936.46,812.38,937.54,810.68Z"/><path d="M964.45,763c-.59,1.2-1.19,2.41-1.79,3.61C963.26,765.43,963.86,764.22,964.45,763Z"/><path d="M213.26,896.56l-1.24-1.2Z"/><path d="M294.88,959.28l-1.76-1.08Z"/><path d="M220.42,903.27l-1.3-1.2Z"/><path d="M299.1,961.81l-1.78-1.06Z"/><path d="M962.22,767.5c-.6,1.2-1.21,2.39-1.82,3.59C961,769.89,961.62,768.7,962.22,767.5Z"/><path d="M209.74,893.15l-1.22-1.2Z"/><path d="M290.68,956.7,289,955.61Z"/><path d="M224.05,906.57l-1.32-1.19Z"/><path d="M303.35,964.31l-1.8-1Z"/><path class="cls-1" d="M918.26,838.41c-.21.29-.42.57-.64.85C917.84,839,918.05,838.7,918.26,838.41Z"/><path class="cls-1" d="M1001.38,657.39c-.08.39-.17.77-.26,1.16C1001.21,658.16,1001.3,657.78,1001.38,657.39Z"/><path class="cls-1" d="M915.27,842.36l-.66.86Z"/><path class="cls-1" d="M804.09,947.11l-1.19.8Z"/><path class="cls-1" d="M770.24,968l-1.4.78Z"/><path class="cls-1" d="M812.26,941.48l-1.15.8Z"/><path class="cls-1" d="M990.9,696.77l-.33,1Z"/><path class="cls-1" d="M808.19,944.31c-.39.28-.79.55-1.19.82C807.4,944.86,807.8,944.59,808.19,944.31Z"/><path class="cls-1" d="M935.35,814.07l-.53.79Z"/><path class="cls-1" d="M1002.44,652.47h0c-.08.36-.16.73-.23,1.09C1002.28,653.19,1002.36,652.83,1002.44,652.47Z"/><path class="cls-1" d="M992.39,691.93c-.11.34-.21.67-.31,1C992.18,692.6,992.28,692.27,992.39,691.93Z"/><path class="cls-1" d="M993.83,687.06l-.31,1Z"/><path class="cls-1" d="M932.6,818.2c-.17.27-.35.53-.53.79C932.25,818.73,932.43,818.47,932.6,818.2Z"/><path class="cls-1" d="M945.9,797.22l-.52.85Z"/><path class="cls-1" d="M995.22,682.16l-.32,1.1Z"/><path class="cls-1" d="M778.88,963l-1.42.83Z"/><path class="cls-1" d="M940.71,805.7l-.54.85Z"/><path class="cls-1" d="M791.62,955.25l-1.36.85Z"/><path class="cls-1" d="M938.05,809.9l-.51.78Z"/><path class="cls-1" d="M929.82,822.3l-.6.87Z"/><path class="cls-1" d="M997.84,672.31l-.3,1.16Z"/><path class="cls-1" d="M927,826.38l-.6.85Z"/><path class="cls-1" d="M787.41,957.88l-1.43.87Z"/><path class="cls-1" d="M999.07,667.36c-.09.38-.19.76-.28,1.13C998.88,668.12,999,667.74,999.07,667.36Z"/><path class="cls-1" d="M921.21,834.44l-.6.81Z"/><path class="cls-1" d="M943.32,801.48l-.51.83Z"/><path class="cls-1" d="M1000.25,662.39c-.08.37-.18.75-.26,1.13C1000.07,663.14,1000.17,662.76,1000.25,662.39Z"/><path class="cls-1" d="M800,949.87l-1.26.82Z"/><path class="cls-1" d="M996.55,677.25c-.1.38-.2.76-.31,1.14C996.35,678,996.45,677.63,996.55,677.25Z"/><path class="cls-1" d="M774.58,965.5l-1.46.83Z"/><path class="cls-1" d="M924.12,830.43l-.57.79Z"/><path class="cls-1" d="M783.16,960.47l-1.37.81Z"/><path class="cls-1" d="M795.81,952.58l-1.31.84Z"/><path class="cls-1" d="M765.88,970.37l-1.44.77Z"/><path class="cls-1" d="M886.57,876.4l-.77.82Z"/><path class="cls-1" d="M862.14,900.91l-.83.76Z"/><path class="cls-1" d="M975.25,739.36c-.12.29-.25.57-.37.86C975,739.93,975.13,739.65,975.25,739.36Z"/><path class="cls-1" d="M960.4,771.09c-.15.28-.3.56-.44.85C960.1,771.65,960.25,771.37,960.4,771.09Z"/><path class="cls-1" d="M858.51,904.26l-.89.8Z"/><path class="cls-1" d="M893.22,869.07l-.75.83Z"/><path class="cls-1" d="M896.49,865.36l-.75.85Z"/><path class="cls-1" d="M958.1,775.51l-.48.9Z"/><path class="cls-1" d="M865.74,897.51c-.29.27-.58.54-.86.82C865.16,898.05,865.45,897.78,865.74,897.51Z"/><path class="cls-1" d="M851.14,910.85l-1,.87Z"/><path class="cls-1" d="M977.18,734.72l-.37.9Z"/><path class="cls-1" d="M854.84,907.57l-1,.86Z"/><path class="cls-1" d="M872.83,890.62l-.82.8Z"/><path class="cls-1" d="M967,757.65c-.13.29-.28.58-.41.87C966.76,758.23,966.91,757.94,967,757.65Z"/><path class="cls-1" d="M883.2,880l-.83.87Z"/><path class="cls-1" d="M964.88,762.15l-.43.87Z"/><path class="cls-1" d="M969.17,753.11l-.43.91Z"/><path class="cls-1" d="M879.78,883.58l-.82.83Z"/><path class="cls-1" d="M979.07,730.06c-.13.32-.26.64-.38,1C978.81,730.7,978.94,730.38,979.07,730.06Z"/><path class="cls-1" d="M869.3,894.08l-.84.81Z"/><path class="cls-1" d="M962.66,766.63c-.14.29-.29.58-.44.87C962.37,767.21,962.52,766.92,962.66,766.63Z"/><path class="cls-1" d="M889.92,872.75l-.76.83Z"/><path class="cls-1" d="M973.27,744l-.39.89Z"/><path class="cls-1" d="M971.24,748.55c-.13.31-.27.61-.41.91C971,749.16,971.11,748.86,971.24,748.55Z"/><path class="cls-1" d="M982.7,720.67c-.13.32-.25.65-.37,1C982.45,721.32,982.57,721,982.7,720.67Z"/><path class="cls-1" d="M987.77,706.4l-.36,1Z"/><path class="cls-1" d="M828.2,929.7c-.36.29-.73.56-1.1.84C827.47,930.26,827.84,930,828.2,929.7Z"/><path class="cls-1" d="M832.11,926.66l-1.06.83Z"/><path class="cls-1" d="M986.13,711.18c-.12.34-.25.68-.37,1C985.88,711.86,986,711.52,986.13,711.18Z"/><path class="cls-1" d="M909.17,850.16l-.67.83Z"/><path class="cls-1" d="M950.91,788.62l-.48.83Z"/><path class="cls-1" d="M989.36,701.6l-.34,1Z"/><path class="cls-1" d="M948.43,792.93l-.52.87Z"/><path class="cls-1" d="M824.26,932.71l-1.12.84Z"/><path class="cls-1" d="M899.72,861.61l-.74.85Z"/><path class="cls-1" d="M912.24,846.28l-.66.83Z"/><path class="cls-1" d="M820.3,935.67l-1.17.85Z"/><path class="cls-1" d="M980.91,725.38l-.38,1Z"/><path class="cls-1" d="M843.63,917.29l-1,.81Z"/><path class="cls-1" d="M902.9,857.83l-.65.78Z"/><path class="cls-1" d="M955.75,779.9l-.5.91Z"/><path class="cls-1" d="M847.4,914.09l-1,.86Z"/><path class="cls-1" d="M953.35,784.28l-.46.81Z"/><path class="cls-1" d="M906.06,854l-.67.8Z"/><path class="cls-1" d="M816.29,938.59l-1.16.83Z"/><path class="cls-1" d="M836,923.58l-1,.83Z"/><path class="cls-1" d="M984.44,715.93c-.13.34-.26.68-.38,1C984.18,716.61,984.31,716.27,984.44,715.93Z"/><path class="cls-1" d="M839.82,920.46l-1,.77Z"/><path class="cls-1" d="M876.32,887.12l-.82.83Z"/><path class="cls-1" d="M245.05,924.4l-2.35-1.89Z"/><path class="cls-1" d="M241.24,921.32l-2.34-1.93Z"/><path class="cls-1" d="M248.89,927.44l-2.37-1.87Z"/><path class="cls-1" d="M233.74,915.06l-2.33-2Z"/><path class="cls-1" d="M237.48,918.22l-2.35-2Z"/><path class="cls-1" d="M252.76,930.44l-2.38-1.83Z"/><path class="cls-1" d="M264.54,939.19l-2.38-1.72Z"/><path class="cls-1" d="M230,911.87c-.78-.68-1.56-1.35-2.33-2C228.48,910.52,229.26,911.19,230,911.87Z"/><path class="cls-1" d="M260.58,936.31l-2.38-1.76Z"/><path class="cls-1" d="M256.66,933.4l-2.39-1.8Z"/><path class="cls-1" d="M219.12,902.07l-2.29-2.13Z"/><path class="cls-1" d="M761.49,972.73l-1.48.78Z"/><path class="cls-1" d="M194.88,878l-2.23-2.4Z"/><path class="cls-1" d="M208.52,892l-2.27-2.24Z"/><path class="cls-1" d="M198.23,881.51,196,879.14Z"/><path class="cls-1" d="M268.53,942l-2.39-1.69Z"/><path class="cls-1" d="M212,895.36l-2.28-2.21Z"/><path class="cls-1" d="M222.73,905.38l-2.31-2.11Z"/><path class="cls-1" d="M226.36,908.64l-2.31-2.07Z"/><path class="cls-1" d="M215.55,898.74l-2.29-2.18Z"/><path class="cls-1" d="M205.05,888.5l-2.25-2.27Z"/><path class="cls-1" d="M323.1,975.14l-2.47-1.29Z"/><path class="cls-1" d="M331.93,979.59l-2.51-1.24Z"/><path class="cls-1" d="M327.5,977.39,325,976.13Z"/><path class="cls-1" d="M318.74,972.85l-2.48-1.32Z"/><path class="cls-1" d="M340.84,983.85l-2.51-1.17Z"/><path class="cls-1" d="M345.33,985.91c-.84-.37-1.68-.75-2.51-1.14C343.65,985.16,344.49,985.54,345.33,985.91Z"/><path class="cls-1" d="M349.85,987.93c-.84-.37-1.68-.73-2.51-1.11C348.17,987.2,349,987.56,349.85,987.93Z"/><path class="cls-1" d="M314.4,970.52l-2.46-1.35Z"/><path class="cls-1" d="M336.37,981.74l-2.51-1.2Z"/><path class="cls-1" d="M297.32,960.75l-2.44-1.47Z"/><path class="cls-1" d="M310.08,968.14l-2.45-1.38Z"/><path class="cls-1" d="M284.81,953l-2.43-1.57Z"/><path class="cls-1" d="M280.7,950.31l-2.43-1.61Z"/><path class="cls-1" d="M276.61,947.59,274.2,946Z"/><path class="cls-1" d="M289,955.61l-2.43-1.54Z"/><path class="cls-1" d="M301.55,963.26c-.82-.48-1.64-1-2.45-1.45C299.91,962.3,300.73,962.78,301.55,963.26Z"/><path class="cls-1" d="M305.8,965.72l-2.45-1.41Z"/><path class="cls-1" d="M293.12,958.2l-2.44-1.5Z"/><path class="cls-1" d="M272.56,944.83l-2.41-1.67Z"/><path class="cls-1" d="M121.26,774.28c-.64-1.21-1.27-2.43-1.9-3.65C120,771.85,120.62,773.07,121.26,774.28Z"/><path class="cls-1" d="M119,769.9c-.63-1.24-1.26-2.48-1.88-3.72C117.73,767.42,118.36,768.66,119,769.9Z"/><path class="cls-1" d="M116.76,765.49l-1.86-3.79Z"/><path class="cls-1" d="M354.39,989.9c-.84-.35-1.68-.71-2.51-1.08C352.71,989.19,353.55,989.55,354.39,989.9Z"/><path class="cls-1" d="M112.45,756.59c-.61-1.3-1.22-2.61-1.82-3.91C111.23,754,111.84,755.29,112.45,756.59Z"/><path class="cls-1" d="M114.58,761.05c-.62-1.28-1.23-2.57-1.84-3.86C113.35,758.48,114,759.77,114.58,761.05Z"/><path class="cls-1" d="M133.25,795.8c-.66-1.12-1.31-2.24-2-3.36C131.94,793.56,132.59,794.68,133.25,795.8Z"/><path class="cls-1" d="M123.57,778.64c-.64-1.19-1.28-2.39-1.91-3.59C122.29,776.25,122.93,777.45,123.57,778.64Z"/><path class="cls-1" d="M128.32,787.27c-.65-1.15-1.29-2.31-1.93-3.47C127,785,127.67,786.12,128.32,787.27Z"/><path class="cls-1" d="M125.93,783c-.65-1.17-1.29-2.34-1.92-3.52C124.64,780.63,125.28,781.8,125.93,783Z"/><path class="cls-1" d="M130.77,791.55c-.66-1.13-1.3-2.27-2-3.41C129.47,789.28,130.11,790.42,130.77,791.55Z"/><path class="cls-1" d="M98.8,724.63q-.87-2.26-1.72-4.55Q97.94,722.36,98.8,724.63Z"/><path class="cls-1" d="M79.6,661.79A469.75,469.75,0,0,0,97,720,467.86,467.86,0,0,1,79.61,661.8Z"/><path class="cls-1" d="M110.36,752.09c-.61-1.33-1.21-2.66-1.81-4C109.15,749.43,109.75,750.76,110.36,752.09Z"/><path class="cls-1" d="M191.56,874.36q-1.12-1.22-2.22-2.43Q190.44,873.15,191.56,874.36Z"/><path class="cls-1" d="M100.61,729.27l-1.74-4.46Z"/><path class="cls-1" d="M106.32,743c-.6-1.38-1.19-2.77-1.78-4.16C105.13,740.27,105.72,741.66,106.32,743Z"/><path class="cls-1" d="M108.32,747.58c-.61-1.36-1.21-2.72-1.8-4.09C107.11,744.86,107.71,746.22,108.32,747.58Z"/><path class="cls-1" d="M102.47,733.88c-.6-1.45-1.18-2.91-1.76-4.37C101.29,731,101.87,732.43,102.47,733.88Z"/><path class="cls-1" d="M104.37,738.47c-.59-1.41-1.18-2.83-1.76-4.25C103.19,735.64,103.78,737.06,104.37,738.47Z"/><path class="cls-1" d="M169.36,848.31l-2.14-2.72Z"/><path class="cls-1" d="M172.41,852.13l-2.15-2.68Z"/><path class="cls-1" d="M166.34,844.45c-.71-.92-1.42-1.83-2.12-2.75C164.92,842.62,165.63,843.53,166.34,844.45Z"/><path class="cls-1" d="M175.51,855.92c-.72-.88-1.45-1.76-2.16-2.64C174.06,854.16,174.79,855,175.51,855.92Z"/><path class="cls-1" d="M188.27,870.74c-.74-.82-1.48-1.65-2.21-2.48C186.79,869.09,187.53,869.92,188.27,870.74Z"/><path class="cls-1" d="M185,867.09l-2.21-2.53Z"/><path class="cls-1" d="M163.36,840.56c-.71-.93-1.41-1.86-2.11-2.8C162,838.7,162.65,839.63,163.36,840.56Z"/><path class="cls-1" d="M181.82,863.4l-2.19-2.56Z"/><path class="cls-1" d="M178.64,859.67l-2.17-2.6Z"/><path class="cls-1" d="M157.52,832.71l-2.09-2.91Z"/><path class="cls-1" d="M146.32,816.6l-2-3.1Z"/><path class="cls-1" d="M141,808.37l-2-3.2Z"/><path class="cls-1" d="M143.63,812.5c-.68-1-1.36-2.1-2-3.15C142.27,810.4,143,811.45,143.63,812.5Z"/><path class="cls-1" d="M138.36,804.2c-.67-1.07-1.34-2.15-2-3.24C137,802.05,137.69,803.13,138.36,804.2Z"/><path class="cls-1" d="M154.66,828.72c-.7-1-1.39-2-2.08-3C153.27,826.76,154,827.74,154.66,828.72Z"/><path class="cls-1" d="M160.42,836.65c-.71-.95-1.41-1.91-2.11-2.86C159,834.74,159.71,835.7,160.42,836.65Z"/><path class="cls-1" d="M135.78,800c-.66-1.1-1.32-2.2-2-3.3C134.46,797.82,135.12,798.92,135.78,800Z"/><path class="cls-1" d="M149.06,820.67c-.69-1-1.37-2-2.05-3C147.69,818.64,148.37,819.66,149.06,820.67Z"/><path class="cls-1" d="M151.84,824.71c-.69-1-1.38-2-2.06-3C150.46,822.72,151.15,823.72,151.84,824.71Z"/><path class="cls-1" d="M201.62,885l-2.24-2.31Z"/><path class="cls-1" d="M643.56,1016.38l-2.22.48Z"/><path class="cls-1" d="M638.55,1017.47l-2.27.47Z"/><path class="cls-1" d="M653.52,1014l-2.27.55Z"/><path class="cls-1" d="M658.47,1012.79l-2.07.52Z"/><path class="cls-1" d="M668.3,1010.14l-2.27.62Z"/><path class="cls-1" d="M648.55,1015.23l-2.38.55Z"/><path class="cls-1" d="M663.4,1011.49l-2.19.58Z"/><path class="cls-1" d="M687.71,1004.22l-2,.64Z"/><path class="cls-1" d="M734.58,986l-1.62.73Z"/><path class="cls-1" d="M739.14,983.87l-1.76.81Z"/><path class="cls-1" d="M730,988l-1.7.74Z"/><path class="cls-1" d="M725.41,990l-1.78.74Z"/><path class="cls-1" d="M748.16,979.55l-1.62.79Z"/><path class="cls-1" d="M752.63,977.32l-1.6.8Z"/><path class="cls-1" d="M757.08,975.05l-1.56.8Z"/><path class="cls-1" d="M720.78,991.94l-1.79.73Z"/><path class="cls-1" d="M743.66,981.73c-.56.28-1.13.54-1.7.81C742.53,982.27,743.1,982,743.66,981.73Z"/><path class="cls-1" d="M678.05,1007.28l-2.11.63Z"/><path class="cls-1" d="M716.12,993.84c-.55.23-1.12.45-1.68.67C715,994.29,715.57,994.07,716.12,993.84Z"/><path class="cls-1" d="M359,991.83l-2.52-1.05Z"/><path class="cls-1" d="M692.5,1002.61l-1.83.61Z"/><path class="cls-1" d="M673.19,1008.73l-2.24.64Z"/><path class="cls-1" d="M706.75,997.5l-1.81.67Z"/><path class="cls-1" d="M711.45,995.7l-1.71.65Z"/><path class="cls-1" d="M702,999.25l-1.87.67Z"/><path class="cls-1" d="M697.28,1001l-1.92.67Z"/><path class="cls-1" d="M682.89,1005.77l-2,.63Z"/><path class="cls-1" d="M425.4,1013.76l-2.62-.65Z"/><path class="cls-1" d="M415.64,1011.22l-2.6-.71Z"/><path class="cls-1" d="M420.51,1012.52l-2.6-.68Z"/><path class="cls-1" d="M410.8,1009.88l-2.59-.74Z"/><path class="cls-1" d="M435.22,1016.1c-.87-.2-1.75-.39-2.62-.6C433.47,1015.71,434.35,1015.9,435.22,1016.1Z"/><path class="cls-1" d="M445.12,1018.23l-2.61-.54Z"/><path class="cls-1" d="M440.15,1017.19c-.87-.19-1.74-.37-2.6-.57C438.41,1016.82,439.28,1017,440.15,1017.19Z"/><path class="cls-1" d="M430.3,1015l-2.62-.63Z"/><path class="cls-1" d="M406,1008.48l-2.57-.77Z"/><path class="cls-1" d="M368.18,995.54l-2.53-1Z"/><path class="cls-1" d="M372.82,997.33l-2.53-1Z"/><path class="cls-1" d="M377.49,999.07l-2.54-.94Z"/><path class="cls-1" d="M363.57,993.71l-2.54-1Z"/><path class="cls-1" d="M401.16,1007l-2.56-.79Z"/><path class="cls-1" d="M396.39,1005.54l-2.57-.83Z"/><path class="cls-1" d="M391.62,1004l-2.55-.85Z"/><path class="cls-1" d="M382.18,1000.76l-2.55-.91Z"/><path class="cls-1" d="M386.9,1002.4l-2.56-.88Z"/><path class="cls-2" d="M977.56,536.5a77.3,77.3,0,0,0-23-3.33c-44.95,0-103.51,33.45-171.31,72.19-48.57,27.74-103.62,59.19-164.54,84.93-34.66,14.64-65.53,27.68-93.43,39-87,35.44-145,54.5-198.22,54.5a217.81,217.81,0,0,1-23.35-1.26c-88.62-9.69-148.35-56.2-196.34-93.58-6.78-5.28-13.33-10.38-19.63-15.1A467.27,467.27,0,0,0,836.6,916.62,469,469,0,0,0,993.94,667.17c1.27-5.16,2.48-10.35,3.57-15.57C1007.84,579.52,1007.4,545.79,977.56,536.5Z"/><path d="M979,531.72c-79.21-24.67-198.83,84.9-362.3,154C580.81,700.86,549,714.31,520.32,726,423,765.48,362.51,784,304.23,777.6,196.65,765.84,130.71,697.66,79.61,661.8A467.86,467.86,0,0,0,97,720l0,.12q.86,2.28,1.72,4.55a1.34,1.34,0,0,1,.07.18l1.74,4.46.1.24c.58,1.46,1.16,2.92,1.76,4.37,0,.11.09.23.14.34.58,1.42,1.17,2.84,1.76,4.25.06.14.12.27.17.41.59,1.39,1.18,2.78,1.78,4.16.07.15.14.3.2.45.59,1.37,1.19,2.73,1.8,4.09l.23.51c.6,1.34,1.2,2.67,1.81,4l.27.59c.6,1.3,1.21,2.61,1.82,3.91l.29.6c.61,1.29,1.22,2.58,1.84,3.86.11.22.22.43.32.65l1.86,3.79c.12.23.24.46.35.69.62,1.24,1.25,2.48,1.88,3.72l.37.73c.63,1.22,1.26,2.44,1.9,3.65l.4.77c.63,1.2,1.27,2.4,1.91,3.59.14.27.29.54.44.81.63,1.18,1.27,2.35,1.92,3.52.15.28.3.56.46.83.64,1.16,1.28,2.32,1.93,3.47l.5.87c.65,1.14,1.29,2.28,2,3.41l.52.89c.65,1.12,1.3,2.24,2,3.36.19.3.37.61.56.92.65,1.1,1.31,2.2,2,3.3.2.31.39.63.58.94.66,1.09,1.33,2.17,2,3.24l.6,1,2,3.2.63,1c.67,1,1.35,2.1,2,3.15l.65,1,2,3.1.69,1c.68,1,1.36,2,2.05,3l.72,1.05c.68,1,1.37,2,2.06,3l.74,1.06c.69,1,1.38,2,2.08,3l.77,1.08,2.09,2.91.79,1.08c.7,1,1.4,1.91,2.11,2.86l.83,1.11c.7.94,1.4,1.87,2.11,2.8l.86,1.14c.7.92,1.41,1.83,2.12,2.75l.88,1.14,2.14,2.72.9,1.14,2.15,2.68.94,1.15c.71.88,1.44,1.76,2.16,2.64l1,1.15,2.17,2.6,1,1.17,2.19,2.56,1,1.16,2.21,2.53,1,1.17c.73.83,1.47,1.66,2.21,2.48l1.07,1.19q1.09,1.22,2.22,2.43l1.09,1.19,2.23,2.4,1.11,1.19,2.24,2.37,1.15,1.19,2.24,2.31,1.18,1.22,2.25,2.27,1.2,1.21,2.27,2.24,1.22,1.2,2.28,2.21,1.24,1.2,2.29,2.18,1.28,1.2,2.29,2.13,1.3,1.2,2.31,2.11,1.32,1.19,2.31,2.07,1.35,1.19c.77.69,1.55,1.36,2.33,2l1.37,1.19,2.33,2,1.39,1.18,2.35,2,1.42,1.17,2.34,1.93,1.46,1.19,2.35,1.89,1.47,1.17,2.37,1.87,1.49,1.17,2.38,1.83,1.51,1.16,2.39,1.8,1.54,1.15,2.38,1.76,1.58,1.16,2.38,1.72,1.6,1.15,2.39,1.69,1.62,1.13,2.41,1.67L274.2,946l2.41,1.64,1.66,1.11,2.43,1.61,1.68,1.1,2.43,1.57,1.71,1.09,2.43,1.54,1.73,1.09,2.44,1.5,1.76,1.08,2.44,1.47,1.78,1.06c.81.49,1.63,1,2.45,1.45l1.8,1,2.45,1.41,1.83,1,2.45,1.38,1.86,1,2.46,1.35,1.86,1,2.48,1.32,1.89,1,2.47,1.29,1.91,1,2.49,1.26,1.92,1,2.51,1.24,1.93.95,2.51,1.2,2,.94,2.51,1.17,2,.92c.83.39,1.67.77,2.51,1.14l2,.91c.83.38,1.67.74,2.51,1.11l2,.89c.83.37,1.67.73,2.51,1.08l2.06.88,2.52,1.05,2.06.86,2.54,1,2.08.84,2.53,1,2.11.83,2.53,1,2.13.8,2.54.94,2.14.78,2.55.91,2.16.76,2.56.88,2.17.74,2.55.85,2.2.72,2.57.83,2.21.7,2.56.79,2.23.68,2.57.77,2.25.66,2.59.74,2.24.63,2.6.71,2.27.62,2.6.68,2.27.59,2.62.65,2.28.57,2.62.63,2.3.54c.87.21,1.75.4,2.62.6l2.33.52c.86.2,1.73.38,2.6.57l2.36.5,2.61.54,2.36.48,2.62.51,2.38.45,2.65.49c.79.14,1.57.29,2.36.42l2.68.46,2.35.4,2.69.43,2.37.38,2.66.39c.8.12,1.6.25,2.41.36l2.64.36,2.45.34,2.65.33,2.45.31,2.69.31,2.42.28,2.73.29,2.41.25,2.78.26,2.37.21c.93.09,1.86.16,2.79.23l2.38.2,2.81.2,2.37.17,2.88.17,2.32.14,2.93.15,2.28.11,3,.11,2.19.09,3.25.09,2,.05c1.2,0,2.41,0,3.61.06l1.65,0c1.75,0,3.51,0,5.27,0,3.56,0,7.1,0,10.64-.12l3.73-.1,1.57,0,2.56-.1,2.73-.1,2.12-.11,3.15-.16,2.28-.13,3-.18,1.93-.14,3.31-.24,2.36-.2c1-.08,1.91-.15,2.86-.24l2.48-.23,2.74-.26,2.12-.22,3.07-.32,2.86-.34,2.3-.26,2.72-.35,2.45-.31,2.39-.33,2.75-.39,2.5-.37,2.62-.39,2.7-.44c.8-.13,1.6-.25,2.4-.39l2.88-.49,2.21-.38,2.79-.52,2.28-.42,2.73-.53,2.31-.45,2.76-.57,2.27-.47,2.79-.61,2.22-.48,2.61-.6,2.38-.55,2.7-.64,2.27-.55,2.88-.73,2.07-.52,2.74-.72,2.19-.58,2.63-.73,2.27-.62,2.65-.77,2.24-.64,2.75-.82,2.11-.63,2.83-.88,2-.63,2.82-.91,2-.64,3-1,1.83-.61c1-.32,1.91-.66,2.86-1l1.92-.67c1-.33,1.91-.68,2.87-1l1.87-.67,2.92-1.08,1.81-.67,3-1.15,1.71-.65,3-1.19c.56-.22,1.13-.44,1.68-.67,1-.38,1.91-.77,2.87-1.17l1.79-.73,2.85-1.2,1.78-.74,2.9-1.26L730,988l3-1.31,1.62-.73,2.8-1.28,1.76-.81,2.82-1.33c.57-.27,1.14-.53,1.7-.81l2.88-1.39,1.62-.79,2.87-1.43,1.6-.8c1-.48,1.93-1,2.89-1.47l1.56-.8,2.93-1.54,1.48-.78c1-.52,2-1.05,3-1.59l1.44-.77,3-1.63,1.4-.78,2.88-1.63,1.46-.83,2.88-1.66,1.42-.83c1-.57,1.94-1.15,2.91-1.73l1.37-.81,2.82-1.72,1.43-.87,2.85-1.78,1.36-.85c1-.6,1.92-1.22,2.88-1.83l1.31-.84c1-.62,1.93-1.26,2.9-1.89l1.26-.82c1-.65,2-1.3,2.93-2l1.19-.8c1-.65,1.94-1.32,2.91-2,.4-.27.8-.54,1.19-.82,1-.67,1.95-1.35,2.92-2l1.15-.8,2.87-2.06,1.16-.83c1-.68,1.89-1.38,2.84-2.07l1.17-.85,2.84-2.12,1.12-.84c1-.72,1.9-1.44,2.84-2.17.37-.28.74-.55,1.1-.84,1-.73,1.9-1.47,2.85-2.21l1.06-.83,2.83-2.25,1-.83,2.89-2.35,1-.77c.95-.78,1.89-1.57,2.83-2.36l1-.81,2.76-2.34,1-.86,2.73-2.37,1-.87,2.73-2.42,1-.86,2.78-2.51.89-.8,2.8-2.59.83-.76,2.74-2.58c.28-.28.57-.55.86-.82.91-.87,1.82-1.74,2.72-2.62l.84-.81c.91-.88,1.81-1.77,2.71-2.66l.82-.8L875.5,888l.82-.83c.89-.9,1.76-1.8,2.64-2.71l.82-.83c.87-.9,1.73-1.81,2.59-2.71l.83-.87c.87-.92,1.74-1.85,2.6-2.78l.77-.82,2.59-2.82.76-.83,2.55-2.85.75-.83c.85-1,1.68-1.91,2.52-2.86l.75-.85,2.49-2.9.74-.85,2.53-3,.65-.78c.84-1,1.67-2,2.49-3l.67-.8,2.44-3,.67-.83c.81-1,1.61-2,2.41-3l.66-.83c.8-1,1.58-2,2.37-3.06l.66-.86c.79-1,1.57-2.06,2.35-3.1.22-.28.43-.56.64-.85.79-1,1.57-2.1,2.35-3.16l.6-.81c.79-1.07,1.56-2.14,2.34-3.22l.57-.79c.76-1.06,1.52-2.13,2.27-3.2l.6-.85,2.23-3.21.6-.87c.76-1.1,1.5-2.2,2.25-3.31.18-.26.36-.52.53-.79.75-1.11,1.48-2.22,2.22-3.34l.53-.79q1.11-1.7,2.19-3.39l.51-.78c.71-1.11,1.42-2.23,2.12-3.35l.54-.85c.71-1.13,1.4-2.26,2.1-3.39l.51-.83c.7-1.13,1.38-2.27,2.06-3.41l.52-.85,2-3.42.52-.87c.67-1.15,1.34-2.32,2-3.48l.48-.83c.67-1.17,1.32-2.35,2-3.53l.46-.81c.64-1.15,1.27-2.31,1.9-3.47l.5-.91c.63-1.16,1.25-2.32,1.87-3.49l.48-.9,1.86-3.57c.14-.29.29-.57.44-.85.61-1.2,1.22-2.39,1.82-3.59.15-.29.3-.58.44-.87.6-1.2,1.2-2.41,1.79-3.61l.43-.87c.59-1.21,1.17-2.42,1.75-3.63.13-.29.28-.58.41-.87.58-1.21,1.14-2.42,1.7-3.63l.43-.91c.56-1.21,1.11-2.43,1.66-3.65.14-.3.28-.6.41-.91.55-1.22,1.09-2.46,1.64-3.69l.39-.89c.54-1.25,1.08-2.5,1.61-3.75.12-.29.25-.57.37-.86l1.56-3.74.37-.9c.51-1.23,1-2.47,1.51-3.71.12-.31.25-.63.38-1,.49-1.24,1-2.48,1.46-3.72l.38-1c.48-1.24,1-2.49,1.42-3.74.12-.32.24-.65.37-1,.46-1.24.91-2.48,1.36-3.71.12-.35.25-.69.38-1,.45-1.24.89-2.49,1.32-3.74.12-.33.25-.67.37-1,.43-1.25.86-2.5,1.28-3.75l.36-1c.42-1.26.84-2.53,1.25-3.8l.34-1c.41-1.27.81-2.54,1.21-3.81l.33-1c.4-1.27.79-2.55,1.18-3.83.1-.34.2-.67.31-1,.38-1.28.76-2.56,1.13-3.84l.31-1c.36-1.27.72-2.53,1.07-3.8l.32-1.1c.35-1.25.69-2.51,1-3.77.11-.38.21-.76.31-1.14q.51-1.89,1-3.78l.3-1.16c.32-1.27.64-2.54.95-3.82.09-.37.19-.75.28-1.13.31-1.28.62-2.56.92-3.84.08-.38.18-.76.26-1.13q.45-1.92.87-3.84c.09-.39.18-.77.26-1.16.28-1.28.56-2.56.83-3.84.07-.36.15-.73.23-1.09,0-.11,0-.22,0-.33C1012.45,582.54,1013.73,542.53,979,531.72ZM997.51,651.6c-1.09,5.22-2.3,10.41-3.57,15.57A467.59,467.59,0,0,1,144.59,804.75,463.91,463.91,0,0,1,87.72,673.89c6.3,4.72,12.85,9.82,19.63,15.1,48,37.38,107.72,83.89,196.34,93.58A217.81,217.81,0,0,0,327,783.83c53.19,0,111.2-19.06,198.22-54.5,27.9-11.36,58.77-24.4,93.43-39,60.92-25.74,116-57.19,164.54-84.93,67.8-38.74,126.36-72.19,171.31-72.19a77.3,77.3,0,0,1,23,3.33C1007.4,545.79,1007.84,579.52,997.51,651.6Z"/><path class="cls-2" d="M847.33,372.55c-1.51,0-3.09,0-4.7-.12-12.45-.85-23-5.9-36.26-12.28-2.74-1.32-5.62-2.7-8.67-4.12-24.26-11.53-47-19.23-69.59-23.53-6.33-1.46-12.51-2.67-18.48-3.84-19.85-3.9-37-7.27-46.19-17.14a24.67,24.67,0,0,1-7.13-18.35c.21-12.72,8.49-27.36,23.32-41.21,20.15-19.4,55.55-31.93,90.2-31.93A137.62,137.62,0,0,1,798.41,223c41.42,7.42,80.83,36.67,93.72,69.55,15.51,37.56.25,58.79-7,66.18C875.67,368,863.31,372.55,847.33,372.55Z"/><path d="M769.84,220.53a147.84,147.84,0,0,1,87,28.87c16.41,12.51,28.77,27.88,34.82,43.3,6,14.63,8,28.24,5.85,40.42a47.37,47.37,0,0,1-12.78,25.2c-9.34,9.24-21.58,13.73-37.42,13.73-1.5,0-3.08,0-4.66-.11-12.36-.85-22.83-5.88-36.08-12.24-2.77-1.33-5.62-2.7-8.67-4.12C773.62,344,750.81,336.32,728.24,332c-6.36-1.46-12.54-2.67-18.51-3.84-19.77-3.89-36.84-7.24-46-17a24.22,24.22,0,0,1-7-18c.21-12.59,8.43-27.1,23.18-40.87,9.87-9.51,23.47-17.51,39.32-23.13a152.6,152.6,0,0,1,50.52-8.65h0m0-1c-35.2,0-70.25,12.52-90.54,32.06-27.08,25.3-28.16,48.36-16.21,60.27C675.14,324.8,700.23,326.61,728,333c28.24,5.39,51.89,15.13,69.48,23.49,18,8.4,30,15.42,45.12,16.45,1.56.08,3.14.12,4.72.12,13.18,0,27-3,38.12-14,11.91-12.08,20.53-34.3,7.15-66.71-12.28-31.31-50.06-62-94.08-69.86a138.5,138.5,0,0,0-28.69-2.93Z"/><path d="M540,64.43a491,491,0,0,1,191.08,943.21A491,491,0,0,1,348.92,103,487.78,487.78,0,0,1,540,64.43m0-1c-271.67,0-491.89,220.22-491.89,491.89S268.33,1047.21,540,1047.21,1031.89,827,1031.89,555.32,811.67,63.43,540,63.43Z"/></svg>